PathFileType	4	(X/Y/Z)	Run_500 02
DataRate	CameraRate	NumFrames	NumMarkers	Units	OrigDataRate	OrigDataStartFrame	OrigNumFrames
100	100	5	42	mm	100	40	128
Frame#	Time	RASI			RPSI			RTH1			RTH2			RTH3			LTH1			LTH2			LTH3			RTB1			RTB2			RTB3			LTB1			LTB2			LTB3			RCAL			RTOE			RMT5			LCAL			LTOE			LMT5			LACR			RACR			CLAV			C7			RUA1			RUA2			RUA3			RLEL			LUA1			LUA2			LUA3			LLEL			LMEL			RFAsuperior			RFAradius			RFAulna			LFAsuperior			LFAradius			LPSI			RMEL			LFAulna			LASI			
		X1	Y1	Z1	X2	Y2	Z2	X3	Y3	Z3	X4	Y4	Z4	X5	Y5	Z5	X6	Y6	Z6	X7	Y7	Z7	X8	Y8	Z8	X9	Y9	Z9	X10	Y10	Z10	X11	Y11	Z11	X12	Y12	Z12	X13	Y13	Z13	X14	Y14	Z14	X15	Y15	Z15	X16	Y16	Z16	X17	Y17	Z17	X18	Y18	Z18	X19	Y19	Z19	X20	Y20	Z20	X21	Y21	Z21	X22	Y22	Z22	X23	Y23	Z23	X24	Y24	Z24	X25	Y25	Z25	X26	Y26	Z26	X27	Y27	Z27	X28	Y28	Z28	X29	Y29	Z29	X30	Y30	Z30	X31	Y31	Z31	X32	Y32	Z32	X33	Y33	Z33	X34	Y34	Z34	X35	Y35	Z35	X36	Y36	Z36	X37	Y37	Z37	X38	Y38	Z38	X39	Y39	Z39	X40	Y40	Z40	X41	Y41	Z41	X42	Y42	Z42	

24	0.78	1025.610669	1020.88896	-242.126635	868.387548	1101.525581	-282.9381	918.155931	918.258771	-182.458177	796.420162	821.116802	-206.40759	752.980247	673.232936	-222.723892	975.871299	948.5709859999999	-540.623328	1002.422566	791.646917	-489.58525	1132.558083	724.986851	-491.090021	636.627837	436.520188	-293.993	545.626738	454.603453	-227.369509	488.88691	314.791359	-308.274721	1244.77537	536.051573	-429.668609	1133.7776	447.91484	-474.858473	1163.65454	332.91222	-410.528835	338.992116	332.256697	-300.890122	405.541325	105.126386	-357.939118	358.225851	122.943155	-264.537404	1010.891109	220.600395	-375.100099	1245.404048	183.238831	-374.454462	1191.306297	136.179089	-459.101957	939.399398	1555.912487	-483.69965	1036.73522	1517.222386	-185.587175	1051.248778	1490.093731	-322.697314	920.693711	1553.438156	-317.828955	971.691719	1412.063981	-90.685253	1030.555656	1359.600464	-83.823429	994.152645	1281.720612	-17.986021	985.206575	1217.815783	15.536811	813.389683	1519.184382	-496.027423	792.391108	1457.108175	-548.6573069999999	693.816173	1446.056589	-541.776369	638.42733	1400.128484	-559.263069	641.472818	1368.025809	-474.74953	1078.717722	1218.458059	-39.253848	1158.041157	1258.700127	-194.459816	1195.659841	1220.295352	-152.078536	669.018515	1324.708056	-580.379608	831.406342	1228.159576	-550.208483	854.256273	1114.572746	-395.712441	956.684387	1185.839493	-65.726331	787.898263	1185.126723	-588.42444	1009.572965	1045.702782	-463.545622	
25	0.79	1026.023578	1022.787867	-242.464065	868.33038	1103.184887	-283.635455	918.275128	919.952046	-183.812615	797.357656	821.841549	-206.878389	754.510994	673.694342	-223.237267	972.917191	947.123974	-541.573302	998.538242	790.12833	-489.098362	1127.260733	720.851661	-490.520415	627.610114	442.0333	-296.374009	541.391707	464.088525	-225.549677	470.077118	332.372937	-307.568375	1246.942869	532.302327	-427.880978	1145.250559	432.814286	-470.756991	1186.394741	322.4817	-404.821505	323.099257	360.696627	-290.935827	369.323018	131.959758	-362.77405	329.003724	147.77266	-266.841332	1046.383576	195.298886	-367.126438	1282.934939	184.344428	-364.015495	1235.232412	126.700989	-445.871065	939.3252189999999	1556.576374	-484.753555	1039.641089	1517.94009	-188.010703	1052.756295	1490.957539	-324.768992	922.175965	1554.529288	-318.622181	975.215571	1413.743034	-91.59891500000001	1033.758123	1361.718539	-85.074308	997.974611	1284.343681	-18.279672	989.31828	1220.709808	15.73634	813.061615	1520.359088	-495.338021	791.148114	1458.000146	-546.541863	692.392035	1447.223037	-536.411239	637.159747	1400.106677	-552.984816	642.88085	1366.592238	-469.216507	1081.872823	1220.26677	-40.868146	1157.874953	1259.472469	-197.579907	1196.308092	1220.673591	-156.100598	668.227549	1325.739788	-575.76201	832.51285	1230.652388	-549.888468	854.340851	1114.826158	-396.656636	959.234086	1188.287202	-64.72745500000001	789.200423	1188.214114	-589.190115	1009.545367	1045.828558	-464.76011	
26	0.8	1026.067916	1024.498176	-242.125558	867.251898	1104.116604	-284.577899	918.368542	921.064337	-184.629076	800.447687	819.1785190000001	-206.431186	759.722484	670.273921	-223.797756	970.237182	945.284088	-542.323094	995.178964	788.046407	-488.974903	1120.936496	714.877022	-490.211556	621.253283	446.08741	-298.696145	540.4964639999999	473.110534	-223.957127	453.413162	351.753494	-306.422662	1245.737925	526.083503	-426.412176	1153.478353	416.94675	-466.574241	1204.978575	312.074069	-399.334741	308.045924	390.743857	-280.955965	337.751446	164.71043	-367.830335	303.644027	176.657567	-269.037069	1078.140494	173.028821	-359.024461	1314.214372	185.627638	-354.739678	1271.166819	120.459313	-433.79062	939.846549	1556.376327	-486.21237	1042.088666	1517.908793	-190.105482	1054.181347	1491.057558	-326.580262	923.71054	1555.23041	-319.90516	977.27528	1414.95577	-92.763409	1035.384903	1362.835944	-86.26562	1000.146308	1285.79873	-18.887764	991.206128	1222.668961	15.651112	813.23434	1520.220085	-495.790134	791.165294	1456.897349	-545.328665	692.384897	1445.649095	-532.509716	637.534622	1397.17073	-548.0457280000001	645.719247	1362.781471	-464.998114	1083.572439	1219.173576	-41.657661	1158.835739	1255.828851	-199.263761	1196.573126	1215.887359	-157.833521	669.134874	1323.608212	-572.221254	835.232295	1230.291259	-550.278668	853.737838	1113.986905	-397.651605	959.874789	1190.23723	-64.15057899999999	791.895009	1188.177644	-589.840219	1008.83014	1044.861723	-466.025474	
27	0.8100000000000001	1026.070434	1025.411664	-241.544469	865.71608	1103.927946	-285.207248	919.247673	921.100891	-184.374782	805.652378	813.873301	-205.436827	767.903552	663.943081	-224.516963	968.2607860000001	943.327661	-542.751164	991.1100709999999	784.710562	-488.506516	1112.772252	706.725746	-489.51763	618.14992	449.060201	-299.695865	542.392831	482.692707	-222.783429	441.141354	372.118653	-304.288025	1241.748354	517.9580549999999	-424.956862	1158.041959	401.414379	-462.257785	1218.830659	301.960235	-394.573683	298.532102	423.030163	-272.93437	311.135635	200.020427	-369.873821	280.437894	209.828814	-269.434316	1104.255268	154.476493	-351.667452	1338.381404	185.681734	-347.294549	1296.97759	116.7879	-424.197067	940.980826	1555.172975	-488.08427	1043.914024	1517.218043	-191.993519	1055.340924	1490.277645	-328.176625	925.169912	1555.37815	-321.734002	978.187772	1415.802406	-94.018682	1035.717959	1362.784682	-87.615514	1000.290926	1286.188582	-19.941579	990.510626	1223.697891	15.206952	813.873873	1518.702551	-497.394063	792.278126	1453.736327	-544.980683	693.687574	1441.271951	-530.451222	639.445047	1391.418818	-544.87141	649.762433	1356.819782	-462.320988	1083.399344	1215.530303	-41.460119	1160.796961	1248.155682	-199.305246	1196.237366	1206.56704	-157.074988	671.642995	1318.414859	-569.996164	839.636982	1227.141357	-551.355191	852.398781	1112.255173	-398.086472	958.47932	1191.593996	-64.17025	795.9764709999999	1184.984861	-590.293953	1007.378746	1043.00245	-466.73122	
28	0.82	1026.274504	1025.089009	-240.932016	864.279495	1102.285841	-285.166125	921.431016	919.567227	-183.481626	812.334304	806.964035	-204.406193	778.050329	655.9613440000001	-225.366408	966.953623	941.0718409999999	-542.631884	985.462169	779.867247	-487.344874	1102.780128	696.5914780000001	-488.224334	618.823673	450.989106	-299.168976	547.401476	492.9247	-222.101509	434.654761	392.613174	-301.294523	1235.772565	508.783755	-423.131338	1158.681597	387.349058	-457.768784	1227.343597	292.39561	-390.804938	297.565214	457.267697	-268.137481	289.636591	235.298609	-366.815529	259.494785	247.278245	-266.5731	1122.87834	139.27683	-345.836798	1354.651129	183.86278	-341.946367	1312.630752	113.965543	-417.638716	942.597777	1552.824514	-490.274397	1045.074002	1515.682446	-193.833667	1056.169301	1488.432602	-329.641422	926.446421	1554.698302	-323.979468	977.97709	1416.029787	-95.393839	1034.897143	1361.747292	-88.87287000000001	998.2852789999999	1285.679786	-21.342214	987.166729	1223.822679	14.536812	814.83784	1515.678034	-500.007535	794.25767	1448.521206	-545.440004	696.07326	1434.170069	-530.3249530000001	642.685834	1383.015246	-543.689468	654.6852709999999	1348.860235	-461.298215	1080.981908	1209.752138	-40.216799	1163.149351	1236.998398	-197.445781	1194.825384	1193.573941	-153.908516	675.562527	1310.417943	-569.198695	845.599159	1221.463642	-552.879309	850.555388	1109.73279	-397.726986	955.110463	1192.199099	-64.71983400000001	801.490254	1178.893883	-590.646557	1005.422986	1040.352539	-466.642848	
